<svg id="Layer_2" data-name="Layer 2" xmlns="http://www.w3.org/2000/svg" viewBox="0 0 1280 400">
  <defs>
    <style>
      .cls-1{fill:#f13343;}
      .cls-2{fill:#232323;}
      .cls-3{fill:#1ad958;}
    </style>
  </defs>
  <rect width="100%" height="100%" fill="#fff" />
  <rect class="cls-1" x="9.32" y="303.76" width="45.01" height="45.01" transform="translate(242.56 75.16) rotate(45.58)"/>
  <path class="cls-2" d="M99.41,125.26,87,125.14a81.64,81.64,0,0,0-76.29,80.64L10,282.38l5.28-5.17,17.23-16.89,16.88,17.23,5.18,5.28,0-3.86.74-72.74a37.09,37.09,0,1,1,74.18.74l-.73,72.74-.48,47.52,44.56.45,1.21-120.26A81.66,81.66,0,0,0,99.41,125.26Z"/>
  <path class="cls-3" d="M316.84,119.19a28.94,28.94,0,1,0,5,16.26A28.92,28.92,0,0,0,316.84,119.19Z"/>
  <path class="cls-2" d="M239.84,135.45c0-1.36.06-2.71.16-4.06a81.4,81.4,0,0,0-21.76-4.93l-12.36-.13A81.65,81.65,0,0,0,129.59,207l-1.21,120.26,44.56.45.48-47.52.73-72.74a37.09,37.09,0,1,1,74.18.75l-.73,72.74-.48,47.52,44.57.44,1.21-120.25a81.76,81.76,0,0,0-2.31-20.16A53.13,53.13,0,0,1,239.84,135.45Z"/>
  <path class="cls-2" d="M510.44,274.1a89.71,89.71,0,0,1-11.51,23.81,81.09,81.09,0,0,1-18.65,19.45,88.85,88.85,0,0,1-25.4,13.09,99.87,99.87,0,0,1-31.75,4.77,103.12,103.12,0,0,1-37.71-7A91.11,91.11,0,0,1,354.07,308a99.17,99.17,0,0,1-21.63-32.54q-8.15-19.26-8.14-43.86,0-23,7.74-41.68A99.17,99.17,0,0,1,352.88,158,94.31,94.31,0,0,1,383,137.37,88.44,88.44,0,0,1,418.37,130q22.22,0,39.88,7.15A81.52,81.52,0,0,1,488,157.41,88.1,88.1,0,0,1,506.48,189q6.33,18.47,6.35,41.48c0,3.71-.14,6.94-.4,9.72a20.87,20.87,0,0,1-.8,5H370.34a50.48,50.48,0,0,0,4.76,20.24,53.19,53.19,0,0,0,11.51,15.88,52.58,52.58,0,0,0,36.52,14.29q21,0,32.34-9.73a53.24,53.24,0,0,0,16.08-24Zm-44.05-62.71A51.58,51.58,0,0,0,463,195.31a39.15,39.15,0,0,0-8.93-13.69,44.22,44.22,0,0,0-14.69-9.53,54.35,54.35,0,0,0-20.64-3.57,47.23,47.23,0,0,0-19.25,3.77A45.56,45.56,0,0,0,385,182.22a49.86,49.86,0,0,0-9.53,13.89,41.48,41.48,0,0,0-4,15.28Z"/>
  <path class="cls-2" d="M607.28,136h40.09v40.88H607.28v89.69q0,12.72,6,18.46t18.66,5.76a76.05,76.05,0,0,0,9.52-.6c3.18-.4,5.29-.73,6.35-1v38.1q-2,.8-8.73,2.58t-19.45,1.78q-27,0-42.46-15.08T561.64,274.1V176.86H525.92V136h9.92q15.48,0,22.62-8.73t7.15-21.44v-29h41.67Z"/>
  <path class="cls-2" d="M796.2,181.62a102.32,102.32,0,0,0-15.08-1.19q-27,0-39.49,14.68t-12.5,42.07v92.08h-46V136h44.85v31a50.62,50.62,0,0,1,21.83-24.61q15.08-8.73,34.13-8.73a62.92,62.92,0,0,1,7.54.39,46.11,46.11,0,0,1,4.76.8Z"/>
  <path class="cls-2" d="M947,265.76a36.83,36.83,0,0,0,10.91,23q9.72,9.93,28.38,9.92,14.28,0,21.63-6.55t7.34-15.67a18.38,18.38,0,0,0-5.56-13.5q-5.55-5.55-17.06-7.93l-28.58-6.35q-25.8-5.56-38.89-20.84a52.89,52.89,0,0,1-13.1-35.52,53.86,53.86,0,0,1,5.55-24,64.9,64.9,0,0,1,15.09-19.84A71.9,71.9,0,0,1,955.15,135a77.26,77.26,0,0,1,28-5q20.25,0,33.94,5.76t22.42,14.09a56.6,56.6,0,0,1,12.9,17.66,69.63,69.63,0,0,1,5.36,16.47l-38.9,11.11a58.67,58.67,0,0,0-2.77-9.12,28.88,28.88,0,0,0-6.16-9.53,34.09,34.09,0,0,0-10.71-7.34q-6.56-3-16.08-3-12.3,0-20,6.55t-7.74,15.68a17.75,17.75,0,0,0,5.16,13.1q5.16,5.16,14.29,7.14l29.37,5.95q27.38,6,41.47,21.63a53.71,53.71,0,0,1,14.09,37.11,56.69,56.69,0,0,1-4.56,22,61.44,61.44,0,0,1-13.5,19.84q-8.93,8.94-22.82,14.49t-32.14,5.56q-21,0-35.73-6t-24.21-14.88a62.94,62.94,0,0,1-14.28-19.05,56.57,56.57,0,0,1-5.56-18.46Z"/>
  <path class="cls-2" d="M1199,217.74l81,111.52h-56.36l-56.75-79-23.82,25v54h-45.64V41.91h45.64V214.17L1217.29,136h61.12Z"/>
  <path class="cls-2" d="M873.52,75.52a28.89,28.89,0,0,0-41.17-7,29.72,29.72,0,0,0-4.55,4.2,28.92,28.92,0,1,0,45.72,2.76Z"/>
  <path class="cls-2" d="M849.58,144.84a52.71,52.71,0,0,1-22.82-5.16V329.26H872.4V139.68A52.71,52.71,0,0,1,849.58,144.84Z"/>
</svg>
